<mxfile host="app.diagrams.net" modified="2024-05-10T15:31:06.986Z" agent="Mozilla/5.0 (X11; Linux x86_64; rv:125.0) Gecko/20100101 Firefox/125.0" version="24.3.1" etag="timkDvo7uvemggorz0lq" type="github">
  <diagram name="Page-1" id="WHlnXtG4-wNuF4GDA74K">
    <mxGraphModel>
      <root>
        <mxCell id="0" />
        <mxCell id="1" parent="0" />
      </root>
    </mxGraphModel>
  </diagram>
</mxfile>
